<svg width="497" height="624" viewBox="0 0 497 624" fill="none" xmlns="http://www.w3.org/2000/svg">
<path d="M136.29 296.219C144.641 296.219 151.569 289.298 151.569 280.78C151.569 272.261 144.818 265.34 136.29 265.34C127.763 265.34 121.012 272.261 121.012 280.78C121.012 289.298 127.763 296.219 136.29 296.219ZM136.29 267.469C143.575 267.469 149.615 273.503 149.615 280.957C149.615 288.411 143.575 294.445 136.29 294.445C129.006 294.445 122.966 288.411 122.966 280.957C122.788 273.503 128.829 267.469 136.29 267.469Z" fill="#1C1C1C"/>
<path d="M283.397 530.834C285.884 533.496 286.239 537.401 284.463 540.418C272.204 562.069 245.377 606.081 241.113 612.825C240.225 614.245 238.271 614.955 236.672 614.422C230.098 612.115 216.241 606.791 219.261 582.655C222.992 551.421 231.875 548.049 221.393 527.108L254.26 499.777L283.397 530.834Z" fill="white"/>
<path d="M237.914 615.309C239.336 615.309 240.757 614.599 241.645 613.179C245.909 606.435 272.736 562.6 284.995 540.772C286.949 537.4 286.416 533.141 283.751 530.301L254.259 498.534L220.326 526.752L220.504 527.284C227.432 540.949 225.833 546.806 222.991 558.519C221.57 564.375 219.615 571.829 218.372 582.3C215.351 607.678 230.453 613.002 236.315 614.954C237.026 615.309 237.559 615.309 237.914 615.309ZM254.259 500.664L282.863 531.366C285.172 533.673 285.528 537.222 283.929 540.062C271.493 562.068 244.843 605.725 240.579 612.469C239.869 613.712 238.27 614.244 237.026 613.712C231.519 611.759 217.128 606.968 220.148 582.655C221.392 572.184 223.346 564.908 224.767 559.051C227.61 547.516 229.209 541.127 222.458 527.284L254.259 500.664Z" fill="#1C1C1C"/>
<path d="M232.053 606.436C232.231 606.436 232.586 606.258 232.586 606.081L275.758 532.964C275.936 532.609 275.936 532.254 275.581 531.899C275.225 531.721 274.87 531.721 274.692 532.076L231.521 605.194C231.343 605.548 231.343 605.903 231.698 606.258C231.876 606.258 231.876 606.436 232.053 606.436Z" fill="#1C1C1C"/>
<path d="M240.4 588.867C240.578 588.867 240.755 588.867 240.933 588.689C241.111 588.334 241.111 587.979 240.933 587.624C240.578 587.447 234.182 581.413 221.568 581.413C221.213 581.413 220.857 581.768 220.857 582.123C220.857 582.478 221.213 582.833 221.568 582.833C233.649 582.833 240.045 588.689 240.045 588.689C240.223 588.867 240.223 588.867 240.4 588.867Z" fill="#1C1C1C"/>
<path d="M227.079 545.918L237.739 543.966C238.094 543.966 238.45 543.611 238.272 543.079C238.272 542.724 237.917 542.369 237.384 542.546L226.724 544.498C226.369 544.498 226.013 544.853 226.191 545.386C226.369 545.741 226.724 545.918 227.079 545.918Z" fill="#1C1C1C"/>
<path d="M226.013 552.841C226.013 552.841 226.191 552.841 226.013 552.841L237.739 550.889C238.094 550.889 238.45 550.534 238.272 550.001C238.272 549.647 237.917 549.292 237.384 549.469L225.836 551.421C225.48 551.421 225.125 551.776 225.303 552.309C225.48 552.663 225.658 552.841 226.013 552.841Z" fill="#1C1C1C"/>
<path d="M224.234 560.293L235.604 558.341C235.96 558.341 236.315 557.986 236.137 557.454C236.137 557.099 235.782 556.744 235.249 556.921L224.056 558.873C223.701 558.873 223.346 559.228 223.523 559.761C223.523 560.116 223.879 560.293 224.234 560.293Z" fill="#1C1C1C"/>
<path d="M253.728 537.932C258.703 537.932 262.967 533.851 262.967 528.704C262.967 523.557 258.881 519.476 253.728 519.476C248.754 519.476 244.49 523.557 244.49 528.704C244.49 530.124 244.845 531.366 245.378 532.608C245.556 532.963 245.911 533.141 246.267 532.963C246.622 532.786 246.8 532.431 246.622 532.076C246.089 531.011 245.911 529.946 245.911 528.704C245.911 524.445 249.464 520.895 253.728 520.895C257.992 520.895 261.546 524.445 261.546 528.704C261.546 532.963 257.992 536.513 253.728 536.513C253.373 536.513 253.018 536.868 253.018 537.222C253.018 537.577 253.373 537.932 253.728 537.932Z" fill="#1C1C1C"/>
<path d="M395.324 539.173C397.811 541.835 398.166 545.74 396.39 548.757C384.131 570.408 357.304 614.42 353.04 621.164C352.152 622.584 350.198 623.293 348.599 622.761C342.025 620.454 328.167 615.13 331.188 590.994C334.919 559.76 343.802 556.388 333.32 535.446L366.187 508.116L395.324 539.173Z" fill="white"/>
<path d="M350.019 623.649C351.44 623.649 352.862 622.939 353.75 621.519C358.014 614.775 384.841 570.94 397.099 549.112C399.054 545.74 398.521 541.481 395.856 538.641L366.364 506.874L332.43 535.092L332.608 535.624C339.537 549.289 337.938 555.146 335.095 566.859C333.674 572.715 331.72 580.169 330.476 590.639C327.456 616.017 342.557 621.341 348.42 623.294C348.953 623.471 349.486 623.649 350.019 623.649ZM394.967 539.706C397.099 542.013 397.632 545.562 396.033 548.402C383.597 570.408 356.948 614.065 352.684 620.809C351.973 622.051 350.374 622.584 349.131 622.051C343.623 620.099 329.232 615.308 332.253 590.994C333.496 580.524 335.451 573.247 336.872 567.391C339.715 555.855 341.313 549.467 334.562 535.624L366.541 509.004L394.967 539.706Z" fill="#1C1C1C"/>
<path d="M343.979 614.599C344.157 614.599 344.512 614.421 344.512 614.244L387.684 541.127C387.862 540.772 387.862 540.417 387.506 540.062C387.151 539.884 386.796 539.884 386.618 540.239L343.446 613.357C343.269 613.711 343.269 614.066 343.624 614.421C343.802 614.599 343.979 614.599 343.979 614.599Z" fill="#1C1C1C"/>
<path d="M352.504 597.206C352.681 597.206 352.859 597.206 353.037 597.028C353.214 596.673 353.214 596.318 353.037 595.963C352.681 595.786 346.286 589.752 333.672 589.752C333.316 589.752 332.961 590.107 332.961 590.462C332.961 590.817 333.316 591.172 333.672 591.172C345.753 591.172 352.148 597.028 352.148 597.028C352.148 597.206 352.326 597.206 352.504 597.206Z" fill="#1C1C1C"/>
<path d="M339.003 554.258L349.663 552.306C350.018 552.306 350.374 551.951 350.196 551.418C350.196 551.064 349.841 550.709 349.308 550.886L338.648 552.838C338.293 552.838 337.937 553.193 338.115 553.726C338.293 553.903 338.648 554.258 339.003 554.258Z" fill="#1C1C1C"/>
<path d="M337.937 561.002C338.115 561.002 338.115 561.002 337.937 561.002L349.663 559.05C350.018 559.05 350.374 558.695 350.196 558.163C350.196 557.808 349.841 557.453 349.308 557.63L337.76 559.582C337.404 559.582 337.049 559.937 337.227 560.47C337.404 560.825 337.582 561.002 337.937 561.002Z" fill="#1C1C1C"/>
<path d="M336.161 568.633C336.161 568.633 336.338 568.633 336.161 568.633L347.531 566.681C347.886 566.681 348.242 566.326 348.064 565.793C348.064 565.439 347.709 565.084 347.176 565.261L335.983 567.213C335.628 567.213 335.272 567.568 335.45 568.101C335.628 568.455 335.805 568.633 336.161 568.633Z" fill="#1C1C1C"/>
<path d="M365.654 546.095C370.629 546.095 374.893 542.014 374.893 536.867C374.893 531.72 370.806 527.639 365.654 527.639C360.68 527.639 356.416 531.72 356.416 536.867C356.416 538.287 356.771 539.529 357.304 540.771C357.482 541.126 357.837 541.304 358.192 541.126C358.548 540.949 358.725 540.594 358.548 540.239C358.015 539.174 357.837 538.109 357.837 536.867C357.837 532.608 361.39 529.058 365.654 529.058C369.918 529.058 373.471 532.608 373.471 536.867C373.471 541.126 369.918 544.676 365.654 544.676C365.299 544.676 364.944 545.031 364.944 545.386C364.944 545.741 365.299 546.095 365.654 546.095Z" fill="#1C1C1C"/>
<path d="M177.863 296.041L145.706 394.359C139.666 412.638 143.574 432.692 155.655 447.599L221.213 527.105C221.213 527.105 251.415 522.669 254.791 496.581C254.791 496.581 225.121 453.278 207.888 431.272C204.69 427.19 204.69 421.511 207.888 417.43C216.593 406.604 232.938 385.663 238.801 374.66C238.801 374.66 292.633 495.693 330.119 537.931C330.119 537.931 354.459 535.092 370.981 511.666C370.981 511.666 324.967 397.908 309.51 290.717L177.863 296.041Z" fill="white"/>
<path d="M330.296 538.464C330.651 538.464 355.168 535.27 371.869 511.844C372.046 511.667 372.046 511.312 371.869 511.134C371.336 510.069 325.677 396.134 310.398 290.363C310.398 290.008 310.042 289.653 309.509 289.83C309.154 289.83 308.799 290.185 308.976 290.718C323.9 393.65 367.427 504.213 370.447 511.489C355.346 532.608 333.671 536.69 330.651 537.045C293.697 495.162 240.221 375.37 239.688 374.306C239.511 374.128 239.333 373.951 239.155 373.951C238.8 373.951 238.622 374.128 238.445 374.306C232.582 385.309 216.592 405.895 207.532 417.076C204.156 421.335 203.978 427.369 207.532 431.806C224.054 452.747 251.947 493.387 254.257 496.937C251.059 520.54 225.298 526.041 221.744 526.574L156.365 447.423C144.284 432.693 140.553 413.171 146.416 394.892L172.532 315.208C172.71 314.854 172.532 314.499 171.999 314.321C171.644 314.144 171.289 314.321 171.111 314.853L144.995 394.537C138.954 413.171 142.685 433.403 155.121 448.31L220.679 527.816C220.856 527.994 221.034 528.171 221.389 527.994C221.744 527.994 252.125 523.202 255.5 496.759C255.5 496.582 255.5 496.404 255.323 496.227C254.967 495.872 225.475 452.569 208.242 430.918C205.222 427.014 205.222 421.69 208.242 417.963C216.948 407.137 232.227 387.616 238.622 376.258C244.485 389.39 294.408 499.066 329.408 538.464C329.941 538.287 330.118 538.464 330.296 538.464Z" fill="#1C1C1C"/>
<path d="M236.311 372.175C236.489 372.175 236.666 372.175 236.844 371.998C237.199 371.643 237.199 371.288 236.844 370.933L222.276 355.848C221.92 355.493 221.565 355.493 221.21 355.848C220.854 356.203 220.854 356.558 221.21 356.913L235.778 371.998C235.956 372.175 236.133 372.175 236.311 372.175Z" fill="#1C1C1C"/>
<path d="M352.506 206.421C369.739 234.284 421.261 305.626 421.261 305.626C421.261 305.626 428.367 312.015 440.093 316.097C451.819 320.356 478.646 319.646 478.646 319.646C485.93 321.598 477.225 330.294 477.225 330.294C479.712 335.441 470.473 340.232 470.473 340.232C472.25 346.089 455.55 346.444 455.55 346.444C459.991 360.286 420.195 350.703 420.195 350.703C405.271 344.669 397.454 327.81 397.454 327.81C389.815 320.711 374.536 307.401 347.176 275.811C319.816 244.222 314.486 228.782 314.486 228.782L352.506 206.421Z" fill="white"/>
<path d="M444.001 354.429C448.976 354.429 453.417 353.719 455.372 351.412C456.438 350.17 456.793 348.75 456.438 346.798C459.458 346.62 468.163 346.088 470.651 342.716C471.184 342.006 471.361 341.119 471.184 340.232C473.138 339.167 479.889 334.908 477.935 330.116C479.178 328.874 482.909 324.614 482.021 321.597C481.666 320.178 480.6 319.29 478.645 318.758H478.468C478.29 318.758 451.641 319.468 440.27 315.386C429.433 311.482 422.504 305.625 421.794 305.093C420.195 302.963 382.708 250.965 361.744 219.375C361.566 219.02 361.033 219.02 360.678 219.198C360.323 219.375 360.323 219.908 360.5 220.263C381.82 252.384 420.195 305.625 420.55 306.158C420.55 306.158 420.55 306.158 420.728 306.335C421.083 306.512 428.189 312.901 439.737 316.983C451.108 321.065 476.158 320.533 478.29 320.355C479.534 320.71 480.244 321.242 480.6 322.13C481.133 324.437 477.935 328.341 476.513 329.761C476.336 329.938 476.158 330.293 476.336 330.648C478.645 335.085 469.94 339.522 469.94 339.699C469.585 339.877 469.407 340.232 469.585 340.587C469.762 341.296 469.762 341.829 469.407 342.361C467.453 345.023 458.747 345.911 455.372 345.911C455.194 345.911 455.016 346.088 454.839 346.266C454.661 346.443 454.661 346.621 454.661 346.975C455.194 348.75 455.016 349.992 454.128 351.057C449.509 356.026 428.189 352.122 420.195 350.347C405.626 344.491 397.987 327.986 397.809 327.809L397.632 327.631C396.921 326.921 396.21 326.212 395.322 325.502C387.15 318.048 372.226 304.205 347.353 275.633C323.191 247.77 316.263 232.508 315.019 229.491L352.683 207.662C353.039 207.485 353.216 206.952 352.861 206.597C352.683 206.243 352.15 206.065 351.973 206.42L313.775 228.604C313.42 228.781 313.42 229.136 313.42 229.491C313.598 230.201 318.927 245.463 346.11 276.698C370.982 305.27 386.084 319.113 394.256 326.567C395.144 327.276 395.855 327.986 396.566 328.696C397.454 330.471 405.093 346.088 419.662 351.945C419.662 351.945 419.662 351.945 419.839 351.945C420.728 351.412 433.697 354.429 444.001 354.429Z" fill="#1C1C1C"/>
<path d="M397.452 327.455C397.452 327.455 407.579 350.171 407.756 370.935C407.756 373.419 410.599 375.016 412.731 373.597C415.751 371.467 419.127 365.256 420.548 348.041C420.37 348.219 431.563 313.79 397.452 327.455Z" fill="white"/>
<path d="M410.777 375.015C411.487 375.015 412.198 374.838 412.909 374.305C417.172 371.288 419.837 362.592 421.081 348.217C421.081 347.863 420.903 347.508 420.37 347.508C420.015 347.508 419.66 347.685 419.66 348.217C418.238 365.432 414.863 371.288 412.198 373.241C411.487 373.773 410.599 373.773 409.711 373.418C408.822 373.063 408.289 372.176 408.289 371.111C408.112 350.347 398.163 327.631 397.985 327.276C397.807 326.921 397.452 326.744 397.097 326.921C396.741 327.099 396.564 327.454 396.741 327.809C396.919 327.986 406.69 350.702 406.868 370.934C406.868 372.353 407.756 373.773 409 374.483C409.711 374.838 410.244 375.015 410.777 375.015Z" fill="#1C1C1C"/>
<path d="M470.471 340.942C470.827 340.942 471.004 340.765 471.182 340.41C471.182 340.233 471.537 339.345 471.004 338.28C470.471 337.393 469.583 336.861 468.162 336.506C467.096 336.328 465.674 335.973 464.075 335.796C460.167 335.086 454.659 334.199 451.639 332.956C451.284 332.779 450.928 332.956 450.751 333.311C450.573 333.666 450.751 334.021 451.106 334.199C454.304 335.441 459.811 336.328 463.72 337.216C465.319 337.571 466.74 337.748 467.806 337.925C468.695 338.103 469.405 338.458 469.583 338.99C469.761 339.523 469.583 340.055 469.583 340.055C469.405 340.41 469.583 340.765 469.938 340.942C470.294 340.765 470.294 340.942 470.471 340.942Z" fill="#1C1C1C"/>
<path d="M477.045 331.003C477.401 331.003 477.756 330.648 477.756 330.293C477.756 330.115 477.756 329.583 477.223 329.05C476.69 328.518 475.979 328.34 475.091 328.163C474.736 328.163 473.67 328.163 472.248 328.163C467.451 328.163 457.325 328.34 451.995 327.453C451.64 327.453 451.284 327.631 451.107 327.986C451.107 328.34 451.284 328.695 451.64 328.873C457.147 329.76 466.918 329.583 472.071 329.583C473.492 329.583 474.38 329.583 474.913 329.583C475.802 329.583 476.157 329.938 476.157 330.115C476.335 330.648 476.69 330.825 477.045 331.003Z" fill="#1C1C1C"/>
<path d="M455.548 346.976C455.903 346.976 456.259 346.621 456.259 346.266C456.259 345.379 455.726 343.427 447.731 342.007C439.914 340.587 436.361 339.345 436.361 339.345C436.005 339.167 435.65 339.345 435.472 339.877C435.295 340.232 435.472 340.587 435.828 340.765C436.005 340.765 439.559 342.007 447.376 343.427C453.949 344.669 454.837 346.089 454.837 346.266C454.837 346.799 455.015 346.976 455.548 346.976C455.548 346.976 455.37 346.976 455.548 346.976Z" fill="#1C1C1C"/>
<path d="M0.736224 113.958C2.33518 110.409 7.84271 109.699 17.7918 110.764C21.7003 111.119 24.5429 110.586 26.3195 109.699C29.3398 108.279 30.7611 104.73 29.5174 101.535C28.2738 98.3409 24.7206 94.2592 15.6598 91.0647C6.77672 87.8703 3.57881 83.2561 2.51284 79.5293C1.8022 76.8672 4.28946 74.5601 6.95439 75.6249C12.2842 77.932 22.7663 81.4814 37.8675 82.9012C53.3241 84.3209 62.9179 101.89 62.9179 101.89L132.917 187.075L139.312 183.881L167.916 221.149C167.916 221.149 152.104 230.91 132.917 237.832C99.3385 250.077 51.5475 128.511 51.5475 128.511C41.2431 130.995 17.9694 123.364 17.9694 123.364C17.9694 123.364 -1.04039 117.508 0.736224 113.958Z" fill="white"/>
<path d="M127.942 239.428C129.718 239.428 131.495 239.073 133.094 238.541C139.845 236.057 147.129 232.862 154.413 229.313C154.769 229.135 154.946 228.78 154.769 228.425C154.591 228.07 154.236 227.893 153.88 228.07C146.596 231.62 139.49 234.814 132.739 237.299C100.227 249.189 52.7909 129.575 52.2579 128.333C52.0802 127.978 51.7249 127.8 51.3696 127.978C41.4205 130.463 18.3245 122.831 18.1468 122.831C12.284 121.057 2.51258 117.33 1.44661 115.023C1.26894 114.845 1.44661 114.668 1.44661 114.49C2.8679 111.473 7.48713 110.586 17.7915 111.651C21.3448 112.006 24.365 111.651 26.6746 110.586C30.0502 108.989 31.6491 105.084 30.2278 101.535C28.9842 98.5181 25.6086 94.0814 16.0149 90.532C9.08609 87.87 4.64452 84.1431 3.22323 79.529C2.8679 78.4641 3.22321 77.5768 3.93386 76.8669C4.64451 76.157 5.71048 75.9795 6.59879 76.3345C12.6393 78.819 22.9437 82.191 37.6896 83.6107C52.6132 85.0305 62.0293 102.067 62.207 102.245C62.207 102.245 62.207 102.245 62.207 102.422L132.206 187.608C132.383 187.785 132.739 187.962 133.094 187.785L138.957 184.945L167.205 221.682C167.383 222.036 167.916 222.036 168.271 221.859C168.626 221.682 168.626 221.149 168.449 220.794L139.845 183.526C139.668 183.171 139.312 183.171 138.957 183.348L133.094 186.188L63.4506 101.535C63.0953 101.003 60.7857 96.9209 56.6994 92.4842C51.0143 86.4502 44.4408 82.9009 37.8673 82.191C23.299 80.7712 13.1723 77.3993 7.13181 74.9147C5.71051 74.3823 4.11152 74.5598 3.04555 75.6246C1.97958 76.6894 1.44663 78.2866 1.80195 79.7064C2.86792 83.2558 6.0658 88.2249 15.4819 91.5968C24.5426 94.9687 27.7406 98.8731 28.8065 101.713C29.8725 104.552 28.8065 107.569 26.1416 108.811C24.0096 109.699 21.3448 110.054 17.9692 109.699C8.55311 108.811 2.15729 108.989 0.203006 113.248C0.0253446 113.78 0.0253446 114.313 0.203006 114.845C1.80196 118.572 16.1926 123.009 17.7915 123.541C18.6798 123.896 40.5322 130.995 51.1919 128.865C52.9685 133.125 64.3389 161.165 79.0848 187.608C97.917 222.214 114.44 239.428 127.942 239.428Z" fill="#1C1C1C"/>
<path d="M128.299 195.239C128.477 195.239 128.832 195.061 128.832 194.884L132.563 189.205C132.741 188.85 132.741 188.495 132.385 188.14C132.03 187.963 131.675 187.963 131.319 188.317L127.588 193.997C127.411 194.351 127.411 194.706 127.766 195.061C128.121 195.239 128.121 195.239 128.299 195.239Z" fill="#1C1C1C"/>
<path d="M237.202 127.268C237.202 127.268 288.724 126.203 314.84 148.209C340.601 169.683 357.834 203.402 357.834 203.402C357.834 203.402 335.804 227.715 309.865 228.958L309.688 290.539C309.688 290.539 272.201 311.836 234.359 312.368C196.695 312.901 177.863 296.041 177.863 296.041L183.548 222.036L166.67 230.91L136.112 183.703C136.29 183.881 186.39 127.268 237.202 127.268Z" fill="#3366FF"/>
<path d="M317.152 222.036C327.279 220.439 336.873 214.405 343.268 209.613C350.197 204.467 354.817 199.675 354.817 199.497C355.172 199.143 355.172 198.433 354.817 198.078C354.461 197.723 353.928 197.723 353.395 198.078C353.218 198.255 335.274 217.067 316.975 219.906C316.442 219.906 316.086 220.439 316.264 220.971C316.264 221.681 316.619 222.036 317.152 222.036Z" fill="white"/>
<path d="M169.514 220.794C169.691 220.794 169.869 220.794 170.047 220.617C170.402 220.262 170.58 219.729 170.224 219.374L142.864 178.556C142.509 178.202 141.976 178.024 141.621 178.379C141.265 178.734 141.088 179.266 141.443 179.621L168.803 220.439C168.803 220.617 169.158 220.794 169.514 220.794Z" fill="white"/>
<path d="M232.406 313.078C233.117 313.078 233.65 313.078 234.36 313.078C271.847 312.545 309.511 291.249 309.866 291.072C310.044 290.894 310.222 290.717 310.222 290.362L310.399 229.49C336.16 227.893 358.013 204.112 358.19 203.757C358.368 203.58 358.368 203.225 358.368 202.87C358.191 202.515 340.602 168.796 315.196 147.322C305.247 138.981 290.501 132.769 271.492 129.398C271.136 129.398 270.781 129.575 270.603 129.93C270.603 130.285 270.781 130.64 271.136 130.817C289.968 134.367 304.537 140.223 314.308 148.564C337.937 168.441 354.637 199.143 356.947 203.225C354.104 206.242 333.496 227.005 309.866 228.07C309.511 228.07 309.156 228.425 309.156 228.78L308.978 289.83C305.07 291.959 269.537 310.948 234.36 311.481C199.716 312.013 181.062 297.461 178.574 295.509L184.26 221.859C184.26 221.681 184.082 221.326 183.904 221.149C183.727 220.972 183.371 220.972 183.194 221.149L166.849 229.845L137.002 183.703C139.133 181.218 151.214 168.441 168.092 155.84C185.326 143.063 211.087 127.623 237.203 127.623C237.558 127.623 237.913 127.268 237.913 126.913C237.913 126.558 237.558 126.203 237.203 126.203C222.635 126.203 198.65 131.172 167.204 154.598C148.372 168.618 135.758 182.816 135.58 182.993C135.403 183.171 135.403 183.526 135.58 183.881L166.138 231.087C166.316 231.442 166.671 231.442 167.026 231.265L182.838 222.924L177.331 295.509C177.331 295.686 177.331 295.863 177.508 296.041C177.686 296.751 196.163 313.078 232.406 313.078Z" fill="#3366FF"/>
<path d="M310.223 226.65C310.756 226.65 310.934 226.296 310.934 225.941L309.335 209.791C309.335 209.436 308.979 209.081 308.624 209.081C308.269 209.081 307.913 209.436 307.913 209.791L309.512 225.941C309.512 226.473 309.868 226.65 310.223 226.65Z" fill="#3366FF"/>
<path d="M184.08 220.438C184.436 220.438 184.791 220.083 184.791 219.728C184.791 219.551 186.923 193.818 190.298 180.508C190.476 180.153 190.121 179.798 189.765 179.62C189.41 179.443 189.055 179.798 188.877 180.153C185.324 193.463 183.37 219.373 183.192 219.551C183.192 220.083 183.547 220.438 184.08 220.438C183.903 220.438 183.903 220.438 184.08 220.438Z" fill="#3366FF"/>
<path d="M236.495 197.013L232.053 204.466C231.342 205.709 229.921 206.596 228.5 206.773L219.794 207.306C216.063 207.483 214.109 212.097 216.596 214.937L222.282 221.503C223.348 222.568 223.703 224.165 223.348 225.763L221.216 234.281C220.327 238.008 223.881 241.202 227.434 239.605L235.429 236.233C236.85 235.701 238.449 235.701 239.692 236.588L246.977 241.202C250.175 243.332 254.261 240.67 253.905 236.943L253.195 228.247C253.017 226.65 253.728 225.23 254.794 224.343L261.367 218.841C264.21 216.357 263.144 211.565 259.413 210.855L251.063 208.903C249.642 208.548 248.398 207.483 247.865 206.063L244.667 197.9C243.246 194.173 238.449 193.818 236.495 197.013Z" fill="white"/>
<path d="M259.587 92.4863C259.587 92.4863 262.429 116.09 262.252 135.789C262.252 135.789 248.394 149.276 221.39 137.031L222.811 110.233L259.587 92.4863Z" fill="white"/>
<path d="M242.889 143.065C255.858 143.065 262.431 136.853 262.964 136.321L263.32 135.966V135.611C263.497 125.14 262.609 113.605 262.076 105.619C262.076 105.086 261.543 104.731 261.01 104.731C260.477 104.731 260.122 105.264 260.122 105.796C260.832 113.605 261.543 124.785 261.365 135.078C259.233 136.853 246.086 146.614 222.457 136.143L223.701 110.588L260.122 93.1957C260.655 93.0183 260.832 92.4859 260.655 91.9535C260.477 91.4211 259.944 91.2436 259.411 91.421L222.102 109.345L220.681 137.385L221.214 137.74C229.564 141.645 236.848 143.065 242.889 143.065Z" fill="#1C1C1C"/>
<path d="M194.209 71.899C196.163 95.5024 206.112 118.573 227.076 117.154C245.909 115.911 261.01 95.5024 262.253 71.899C263.497 47.9407 242.711 23.0951 223.878 23.45C204.869 23.9825 190.478 26.467 194.209 71.899Z" fill="white"/>
<path d="M250.349 47.5852C250.349 47.5852 198.117 52.9092 184.97 33.0327C171.823 13.1562 184.97 0.0234375 184.97 0.0234375C184.97 0.0234375 198.472 6.94473 213.573 7.1222C238.979 7.29966 273.801 9.42928 262.43 35.3397C262.43 35.3397 282.328 37.4694 281.262 56.2811C280.196 75.0928 267.582 81.8366 267.582 81.8366C267.582 81.8366 259.588 87.3382 253.014 76.69C246.796 66.0419 249.461 57.7009 250.349 47.5852Z" fill="#1C1C1C"/>
<path d="M204.001 70.9861C203.996 68.3398 205.106 66.1911 206.479 66.1869C207.853 66.1828 208.97 68.3247 208.975 70.971C208.98 73.6174 207.87 75.7661 206.496 75.7702C205.122 75.7744 204.005 73.6325 204.001 70.9861Z" fill="#1C1C1C"/>
<path d="M227.727 72.0252C227.723 69.3788 228.832 67.2301 230.206 67.226C231.58 67.2218 232.697 69.3637 232.702 72.0101C232.706 74.6565 231.596 76.8051 230.223 76.8093C228.849 76.8135 227.732 74.6716 227.727 72.0252Z" fill="#1C1C1C"/>
<path d="M199.893 57.5233C200.07 57.5233 200.248 57.5233 200.426 57.3458C204.867 53.4415 208.598 54.8612 208.776 55.0387C209.309 55.2162 209.842 55.0387 210.019 54.5063C210.197 53.9739 210.019 53.4415 209.486 53.264C209.309 53.0866 204.689 51.1344 199.182 55.9261C198.827 56.281 198.827 56.8134 199.004 57.3458C199.537 57.5233 199.715 57.5233 199.893 57.5233Z" fill="#1C1C1C"/>
<path d="M239.512 60.5411C239.868 60.5411 240.223 60.3637 240.401 60.0087C240.578 59.4763 240.578 58.9439 240.045 58.7664C232.939 54.5072 226.898 54.6846 226.721 54.6846C226.188 54.6846 225.832 55.217 225.832 55.7494C225.832 56.2818 226.188 56.6368 226.721 56.6368C226.721 56.6368 232.406 56.4593 239.157 60.3636C239.157 60.5411 239.335 60.5411 239.512 60.5411Z" fill="#1C1C1C"/>
<path d="M227.786 100.117C235.959 98.8744 238.091 91.4208 238.091 91.0658C238.268 90.5334 237.913 90.001 237.38 89.8235C236.847 89.646 236.314 90.001 236.136 90.5334C236.136 90.8883 234.36 97.0998 227.431 98.1646C226.898 98.1646 226.542 98.6969 226.72 99.2293C226.898 99.9392 227.253 100.117 227.786 100.117Z" fill="#1C1C1C"/>
<path d="M270.958 77.0448C271.314 77.0448 271.491 76.8674 271.669 76.6899C277.709 67.8164 277.176 61.0726 277.176 60.8952C277.176 60.3628 276.644 60.0078 276.111 60.0078C275.578 60.0078 275.222 60.5402 275.222 61.0726C275.222 61.2501 275.755 67.284 270.07 75.6251C269.715 75.98 269.892 76.6899 270.248 76.8674C270.425 76.8674 270.603 77.0448 270.958 77.0448Z" fill="white"/>
<path d="M221.745 89.4686C222.278 89.4686 222.634 89.1137 222.634 88.5813C222.634 88.0489 222.278 87.694 221.745 87.5165L218.548 87.3391V75.2711C218.548 74.7387 218.192 74.3838 217.659 74.3838C217.126 74.3838 216.771 74.7387 216.771 75.2711V88.2264C216.771 88.7588 217.126 89.1137 217.659 89.1137L221.745 89.4686Z" fill="#1C1C1C"/>
<path d="M254.507 93.657C250.467 89.9371 251.198 82.6139 256.14 77.3001C261.082 71.9863 268.364 70.6941 272.405 74.414C276.445 78.1339 275.714 85.4571 270.772 90.7709C265.83 96.0847 258.548 97.3769 254.507 93.657Z" fill="white"/>
<path d="M225.476 118.217C226.009 118.217 226.542 118.217 227.252 118.217C241.288 117.33 253.724 106.149 259.942 89.2895C260.12 88.7571 259.942 88.2247 259.409 88.0472C258.876 87.8697 258.343 88.0472 258.166 88.5796C252.48 104.552 240.222 115.555 227.252 116.265C226.719 116.265 226.186 116.265 225.653 116.265C206.111 116.265 197.228 93.5487 195.451 71.72C194.385 59.4747 194.74 49.8914 196.339 42.7926C196.517 42.2602 196.162 41.7278 195.629 41.7278C195.096 41.5503 194.563 41.9053 194.563 42.4377C192.964 49.7139 192.608 59.4747 193.674 71.8975C194.74 84.8528 198.116 96.2108 203.09 104.374C208.42 113.425 216.237 118.217 225.476 118.217Z" fill="#1C1C1C"/>
<path d="M261.719 92.3073C264.029 92.1298 266.516 91.065 268.47 89.1128C270.069 87.3382 271.135 85.386 271.313 83.2563C271.49 81.1267 270.957 78.9971 269.536 77.7548C267.582 75.8027 264.206 75.4477 261.186 77.0449C260.653 77.2224 260.475 77.9323 260.831 78.2872C261.008 78.8196 261.719 78.9971 262.074 78.6422C264.384 77.3999 266.871 77.5773 268.292 78.9971C269.181 79.8844 269.714 81.3042 269.536 82.9014C269.358 84.6761 268.47 86.2733 267.049 87.6931C265.45 89.2903 263.496 90.1776 261.719 90.3551C261.186 90.3551 260.831 90.8875 260.831 91.4199C260.831 91.7749 261.364 92.3073 261.719 92.3073Z" fill="#1C1C1C"/>
<path d="M259.944 36.5817C260.299 36.5817 260.654 36.2267 260.832 35.8718C260.832 35.5169 262.786 28.9505 259.233 23.449C256.923 20.0771 253.015 17.9474 247.33 17.415C246.797 17.415 246.264 17.77 246.264 18.3024C246.264 18.8348 246.619 19.3672 247.152 19.3672C252.127 19.8996 255.68 21.6743 257.634 24.5138C260.654 29.128 259.055 35.1619 259.055 35.3394C258.878 35.8718 259.233 36.4042 259.766 36.5817C259.766 36.4042 259.944 36.5817 259.944 36.5817Z" fill="white"/>
<path d="M427.941 73.1672L479.463 72.6348C482.483 72.6348 484.615 75.6517 483.549 78.4912L449.793 166.338L408.576 156.223L399.16 149.301L427.941 73.1672Z" fill="#E6F3FB"/>
<path d="M449.791 167.048C450.147 167.048 450.324 166.871 450.502 166.516C450.68 166.161 450.324 165.806 449.969 165.629L408.751 155.513L399.868 149.124L428.294 73.8772L479.461 73.3448C480.705 73.3448 481.77 73.8772 482.481 74.9421C483.192 76.0069 483.369 77.2491 482.836 78.314L481.77 81.1535C481.593 81.5084 481.77 81.8633 482.126 82.0408C482.481 82.2183 482.836 82.0408 483.014 81.6859L484.08 78.8464C484.613 77.2492 484.435 75.4745 483.547 74.2322C482.659 72.8124 481.06 72.1025 479.461 72.1025L427.939 72.635C427.584 72.635 427.406 72.8124 427.228 73.1674L398.447 149.302C398.269 149.656 398.447 150.011 398.625 150.189L408.041 157.11L408.218 157.288L449.791 167.048C449.791 167.048 449.614 167.048 449.791 167.048Z" fill="#3366FF" fill-opacity="0.7"/>
<path d="M429.183 73.5225L493.142 85.4128C495.274 85.7678 496.517 88.2524 495.629 90.2045L461.518 167.758C460.985 168.823 459.919 169.178 458.853 168.823L399.692 147.172L429.183 73.5225Z" fill="white"/>
<path d="M459.564 169.888C460.63 169.888 461.873 169.178 462.229 168.113L496.34 90.7366C496.873 89.4943 496.873 88.0745 496.162 87.0097C495.629 85.7674 494.386 85.0576 493.142 84.7026L428.473 72.6348L398.448 147.882L458.498 169.888C458.853 169.888 459.208 169.888 459.564 169.888ZM429.717 74.5869L492.964 86.4773C493.675 86.6548 494.386 87.1872 494.741 87.7196C495.096 88.4295 495.096 89.3168 494.741 90.0267L460.63 167.403C460.452 167.936 459.741 168.29 459.208 168.113L400.935 146.817L429.717 74.5869Z" fill="#3366FF" fill-opacity="0.7"/>
<path d="M439.665 179.293L397.737 151.076C395.783 150.188 395.072 148.059 395.783 146.107L423.143 75.8289C424.031 73.5218 426.874 72.457 429.183 73.5218L479.284 93.5758C481.949 94.8181 482.482 99.4322 481.416 102.094L448.726 175.921C447.305 179.471 443.041 180.89 439.665 179.293Z" fill="#3366FF" fill-opacity="0.7"/>
<path d="M442.507 180.714C443.396 180.714 444.462 180.536 445.35 180.181C447.126 179.472 448.725 178.052 449.258 176.277L482.126 102.45C483.192 99.6105 482.836 94.4639 479.639 93.0442L429.36 72.9902C428.117 72.4577 426.695 72.2803 425.274 72.8127C424.03 73.3451 422.964 74.4099 422.431 75.6522L395.072 145.752C394.183 148.06 395.249 150.544 397.381 151.609L439.309 179.826C440.375 180.359 441.441 180.714 442.507 180.714ZM427.228 73.8775C427.761 73.8775 428.294 74.055 428.827 74.2325L479.106 94.2864C481.238 95.3512 481.771 99.4331 480.882 101.918L448.192 175.745C447.659 177.164 446.416 178.229 444.995 178.762C443.396 179.472 441.619 179.294 440.198 178.584L398.092 150.367C396.493 149.479 395.782 147.705 396.315 146.107L423.675 76.0071C424.03 75.1198 424.741 74.4099 425.629 74.055C426.34 73.8775 426.873 73.8775 427.228 73.8775Z" fill="#3366FF" fill-opacity="0.7"/>
<path d="M468.09 102.626L429.005 84.7017C427.406 83.9918 425.452 84.7017 424.741 86.4764L422.431 92.1554C421.721 93.7527 422.431 95.5273 424.03 96.2372L462.228 115.759C463.827 116.646 465.781 115.936 466.669 114.162L469.867 106.885C470.4 105.288 469.689 103.336 468.09 102.626Z" fill="white"/>
<path d="M435.935 119.309C435.402 119.309 434.869 119.486 434.336 119.841L430.605 123.035C430.072 123.39 429.539 123.568 429.006 123.568C428.828 123.568 428.65 123.568 428.473 123.39L424.031 122.148C423.854 122.148 423.676 121.971 423.321 121.971C421.544 121.971 420.123 123.745 420.833 125.52L422.432 129.957C422.788 130.667 422.61 131.554 422.077 132.264L419.234 136.346C417.991 138.12 419.057 140.25 421.011 140.25H421.189L425.985 139.895H426.163C426.874 139.895 427.584 140.25 427.94 140.782L430.782 144.509C431.315 145.219 431.848 145.397 432.559 145.397C433.625 145.397 434.691 144.687 435.224 143.444L436.645 138.653C436.823 137.765 437.534 137.233 438.244 136.878L442.686 135.103C444.64 134.393 444.995 131.731 443.396 130.489L439.488 127.827C438.777 127.472 438.422 126.585 438.422 125.697V120.906C438.244 120.373 437.178 119.309 435.935 119.309Z" fill="white"/>
<path d="M41.9505 387.792L109.284 378.031C110.883 378.031 111.772 376.434 111.239 375.014L73.752 287.167L14.2353 309.173L41.9505 387.792Z" fill="#E6F3FB"/>
<path d="M45.3278 385.486L111.24 371.111C112.839 370.934 113.728 369.159 113.195 367.739L79.0836 290.54L14.237 309.352L45.3278 385.486Z" fill="white"/>
<path d="M45.3239 385.484L111.236 371.109C112.835 370.932 113.724 369.157 113.191 367.737L79.0797 290.538L14.2331 309.35L45.3239 385.484Z" fill="white"/>
<path d="M44.7923 386.549L111.415 371.997C112.304 371.819 113.192 371.287 113.725 370.399C114.258 369.512 114.258 368.447 113.903 367.383L79.614 289.474L13.1685 308.64L44.7923 386.549ZM78.5481 291.781L112.304 368.27C112.481 368.802 112.481 369.157 112.304 369.69C112.126 370.045 111.593 370.399 111.238 370.399L46.0359 384.597L15.6557 310.06L78.5481 291.781Z" fill="#3366FF" fill-opacity="0.7"/>
<path d="M74.4646 278.294L13.1712 301.365C12.2829 301.72 11.3946 302.252 10.684 302.962L6.06476 307.399C4.82113 308.464 4.4658 310.061 5.17645 311.481L39.2875 387.083C39.8205 388.147 41.0641 388.502 41.9524 387.793L48.7036 383.001C49.0589 382.646 49.5919 382.468 50.1249 382.291L110.708 360.285C113.195 359.398 114.261 356.558 113.195 354.251L79.9721 280.779C79.0838 278.649 76.5965 277.584 74.4646 278.294Z" fill="white"/>
<path d="M40.886 388.857C41.4189 388.857 41.9519 388.68 42.3072 388.325L49.0584 383.533C49.4137 383.178 49.769 383.001 50.302 382.823L110.885 360.995C112.306 360.462 113.372 359.397 113.905 358.155C114.438 356.735 114.438 355.316 113.905 353.896L80.6822 280.424C79.6162 277.939 76.7736 276.697 74.2864 277.762L12.993 300.833C11.9271 301.188 11.0388 301.72 10.3281 302.43L5.70889 306.867C4.28759 308.109 3.93231 310.061 4.64296 311.658L38.5764 387.438C38.9317 388.147 39.4647 388.68 40.1753 388.857C40.5306 388.857 40.7083 388.857 40.886 388.857ZM76.063 278.827C77.4843 278.827 78.9056 279.714 79.4386 280.956L112.661 354.606C113.017 355.493 113.194 356.735 112.661 357.623C112.306 358.688 111.418 359.397 110.529 359.752L49.9467 381.758C49.4137 381.936 48.8807 382.291 48.3478 382.646L41.5966 387.438C41.2413 387.615 41.0636 387.615 40.7083 387.615C40.353 387.437 40.1753 387.26 39.9977 386.905L6.06423 311.126C5.53125 310.061 5.88656 308.641 6.77487 307.931L11.3941 303.495C12.1047 302.962 12.8154 302.43 13.5261 302.075L74.8193 279.004C75.1747 278.826 75.53 278.827 76.063 278.827Z" fill="#3366FF" fill-opacity="0.7"/>
<path d="M43.372 373.772C43.5497 373.772 43.5497 373.772 43.7273 373.772C44.0827 373.594 44.2603 373.239 44.0826 372.884L12.8141 302.784C12.6365 302.429 12.2812 302.252 11.9258 302.429C11.5705 302.606 11.3929 302.961 11.5705 303.316L42.839 373.417C42.839 373.772 43.1943 373.772 43.372 373.772Z" fill="#3366FF" fill-opacity="0.7"/>
<path d="M41.9531 388.503L109.287 378.742C109.642 378.742 109.998 378.387 109.82 377.855C109.642 377.322 109.465 377.145 108.932 377.322L41.5978 387.083C41.2425 387.083 40.8871 387.438 41.0648 387.971C41.2425 388.325 41.5978 388.503 41.9531 388.503Z" fill="#3366FF" fill-opacity="0.7"/>
<path d="M72.8667 285.393L24.0097 303.672C22.5884 304.205 21.8778 305.979 22.4108 307.399L51.0143 371.82C51.5473 373.063 52.9686 373.772 54.3899 373.24L103.78 356.026C105.379 355.493 106.089 353.719 105.379 352.299L76.42 286.813C75.7093 285.393 74.1104 284.861 72.8667 285.393Z" fill="#3366FF" fill-opacity="0.7"/>
<path d="M71.6211 55.9248L62.0274 54.8599C57.7635 54.3275 56.8752 48.4711 60.7838 46.6964L69.6669 42.7921C71.0882 42.2597 71.9765 40.8399 72.1541 39.4202L73.2201 29.8368C73.7531 25.4001 79.6159 24.5128 81.2149 28.5945L84.9458 37.468C85.4788 38.8877 86.9001 39.7751 88.3214 39.9525L97.9151 41.0174C102.179 41.5498 103.067 47.4063 99.1587 49.181L90.2756 53.0852C88.8543 53.6176 87.966 55.0374 87.7884 56.4572L86.7224 66.0405C86.1894 70.4772 80.3266 71.3645 78.7276 67.2828L74.9967 58.4093C74.4637 57.167 73.2201 56.1022 71.6211 55.9248Z" fill="white"/>
<path d="M82.636 70.833C82.8137 70.833 83.169 70.833 83.3467 70.833C85.6563 70.4781 87.2552 68.7034 87.4329 66.3963L88.4989 56.813C88.6765 55.5707 89.3872 54.5059 90.6308 53.9734L99.5139 50.0692C101.646 49.1818 102.712 47.0522 102.356 44.7451C102.001 42.438 100.402 40.8408 98.0926 40.4858L88.4989 39.421C87.2552 39.2436 86.1893 38.5337 85.6563 37.2914L81.9254 28.4179C81.0371 26.2883 78.9051 25.0461 76.5955 25.401C74.2859 25.7559 72.687 27.5306 72.5093 29.8377L71.4433 39.421C71.4433 39.776 71.621 40.1309 72.154 40.1309C72.5093 40.1309 72.8646 39.9534 72.8646 39.421L73.9306 29.8377C74.1083 27.8856 75.7072 26.8207 76.9508 26.6432C78.1945 26.4658 79.9711 26.8207 80.6818 28.7729L84.4127 37.6463C85.1233 39.2436 86.7223 40.4858 88.3212 40.6633L97.9149 41.7281C99.8692 41.9056 100.758 43.5028 100.935 44.7451C101.113 45.9874 100.758 47.7621 98.8033 48.4719L89.9202 52.3762C88.3212 53.0861 87.0776 54.6834 86.8999 56.4581L85.8339 66.0414C85.6563 67.9935 84.0573 69.0583 82.8137 69.2358C81.5701 69.4133 79.7935 69.0583 79.0828 67.1062L75.3519 58.2327C74.6413 56.6355 73.0423 55.3932 71.4433 55.2157L61.8496 54.1509C59.8953 53.9735 59.007 52.3763 58.8293 51.134C58.6517 49.8917 59.007 48.117 60.9613 47.4071L67.7124 44.3901C68.0678 44.2127 68.2454 43.8577 68.0678 43.5028C67.8901 43.1478 67.5348 42.9704 67.1794 43.1479L60.4283 46.1648C58.2964 47.0522 57.2304 49.1818 57.5857 51.4889C57.941 53.796 59.54 55.3932 61.8496 55.7481L71.4433 56.813C72.687 56.9904 73.7529 57.7003 74.2859 58.9426L78.0168 67.8161C79.0828 69.5907 80.6818 70.833 82.636 70.833Z" fill="#1C1C1C"/>
<path d="M400.614 444.088C402.959 432.127 413.38 423.11 425.881 423.11C440.108 423.11 451.642 434.79 451.642 449.198C451.642 453.856 450.436 458.229 448.324 462.014M400.8 455.179C403.469 466.705 413.685 475.286 425.881 475.286C431.093 475.286 435.943 473.719 439.997 471.024" stroke="#1C1C1C" stroke-width="2.85608" stroke-linecap="round"/>
<path d="M451.286 469.074C456.083 469.074 459.458 468.009 460.524 465.525C461.412 463.218 460.169 460.201 456.793 456.829C456.438 456.474 456.083 456.474 455.727 456.829C455.372 457.184 455.372 457.539 455.727 457.894C458.57 460.733 459.814 463.395 459.103 464.992C457.326 469.606 441.692 468.719 421.439 460.378C401.185 452.037 389.459 441.566 391.236 437.13C391.947 435.355 394.789 434.468 399.053 434.468C399.409 434.468 399.764 434.113 399.764 433.758C399.764 433.403 399.409 433.048 399.053 433.048C394.079 433.048 390.881 434.29 389.815 436.775C387.15 443.518 403.495 454.877 420.906 461.975C431.743 466.057 443.291 469.074 451.286 469.074Z" fill="#1C1C1C"/>
<path d="M351.085 364.722L356.948 366.141L358.369 360.107C358.547 359.397 359.257 359.043 359.968 359.22C360.679 359.397 361.034 360.107 360.856 360.817L359.435 366.851L365.298 368.271C366.009 368.448 366.364 369.158 366.186 369.868C366.009 370.578 365.298 370.933 364.587 370.756L358.724 369.336L357.303 375.37C357.125 376.08 356.415 376.435 355.704 376.257C354.993 376.08 354.638 375.37 354.816 374.66L356.237 368.626L350.374 367.206C349.664 367.029 349.308 366.319 349.486 365.609C349.664 365.077 350.374 364.544 351.085 364.722Z" fill="#1C1C1C"/>
<path d="M92.7621 484.336C93.2951 484.336 94.0058 484.159 94.5388 483.981L116.391 477.238C118.523 476.528 119.944 474.93 120.477 472.801C121.01 470.671 120.3 468.542 118.701 466.944L102.001 451.15C100.402 449.73 98.2696 449.197 96.1377 449.73C94.0058 450.44 92.5845 452.037 92.0515 454.167L86.8993 476.705C86.3663 478.835 87.0769 480.964 88.6759 482.562C89.9195 483.626 91.3408 484.336 92.7621 484.336ZM100.935 452.569L117.635 468.364C118.701 469.429 119.234 470.849 118.878 472.446C118.523 473.866 117.457 475.108 116.036 475.463L94.1834 482.207C92.7621 482.562 91.1632 482.207 90.0972 481.319C89.0312 480.254 88.4983 478.835 88.8536 477.238L94.0058 454.699C94.3611 453.279 95.4271 452.037 96.8484 451.682C98.2697 451.15 99.6909 451.505 100.935 452.569Z" fill="#1C1C1C"/>
</svg>
