<svg width="20" height="17" viewBox="0 0 20 17" fill="none" xmlns="http://www.w3.org/2000/svg">
<path d="M1.72267 10.7915H0V3.98193H4.0095L5.78312 6.36877C5.78312 6.36877 5.21896 5.65555 3.89441 5.67253C2.56986 5.68951 1.73965 5.67253 1.73965 5.67253L1.72267 10.7915Z" fill="white"/>
<path d="M0 13.4595V11.7368H3.99252C3.99252 11.7368 6.37935 11.8519 6.67747 9.10284C6.72653 8.37452 6.66804 7.55753 6.32275 7.1311C6.99823 8.00093 8.33788 9.86511 8.33788 9.86511C8.33788 9.86511 7.83976 13.1859 4.16988 13.4595H0Z" fill="white"/>
<path d="M15.2227 3.98193V13.4595H13.4321V6.58387L10.5603 10.3896L10.5584 10.3915L10.1679 10.9405L9.85652 10.4877L9.85464 10.4839L5.05078 3.98193H7.21686L10.2245 8.04049L13.1905 3.98193H15.2227Z" fill="white"/>
<path d="M13.7606 16.6407C17.4531 15.0123 19.3362 10.8349 18.0776 6.97258C17.4229 4.96877 16.0229 3.33289 14.1323 2.36495C14.1115 2.35552 14.0927 2.34419 14.0719 2.33476C11.9757 1.27814 9.5209 1.20455 7.36426 2.13287C7.71709 1.93664 8.70768 1.43475 10.0002 1.06304C10.0002 1.06304 10.0002 1.06304 10.002 1.06304C10.002 1.06304 10.0039 1.06304 10.0058 1.06304C10.2473 1.00078 17.8022 -0.895483 19.8475 6.87635C20.3305 9.80659 20.0022 15.5161 13.7606 16.6407Z" fill="white"/>
</svg>
