<svg width="24" height="24" viewBox="0 0 24 24" fill="none" xmlns="http://www.w3.org/2000/svg">
<path d="M16.2549 7.74684C15.1756 6.66746 13.6517 5.96903 12.0009 5.96903C10.3501 5.96903 8.82623 6.63571 7.74684 7.74684C6.66746 8.82623 5.96903 10.3501 5.96903 12.0009C5.96903 13.6517 6.66746 15.1756 7.74684 16.2549C8.82623 17.3343 10.3501 18.0328 12.0009 18.0328C13.6517 18.0328 15.1756 17.3661 16.2549 16.2549C17.3343 15.1756 18.0328 13.6517 18.0328 12.0009C18.0328 10.3501 17.3661 8.82623 16.2549 7.74684ZM15.1121 15.1121C14.3184 15.9057 13.2073 16.3819 12.0009 16.3819C10.7945 16.3819 9.68339 15.9057 8.88972 15.1121C8.09605 14.3184 7.61985 13.2073 7.61985 12.0009C7.61985 10.7945 8.09605 9.68339 8.88972 8.88972C9.68339 8.09605 10.7945 7.61985 12.0009 7.61985C13.2073 7.61985 14.3184 8.09605 15.1121 8.88972C15.9057 9.68339 16.3819 10.7945 16.3819 12.0009C16.3819 13.2073 15.9057 14.3184 15.1121 15.1121Z" fill="#03C581"/>
<path d="M23.1742 11.1763H20.7297C20.2853 11.1763 19.9043 11.5573 19.9043 12.0018C19.9043 12.4462 20.2853 12.8272 20.7297 12.8272H23.1742C23.6187 12.8272 23.9996 12.4462 23.9996 12.0018C23.9996 11.5573 23.6187 11.1763 23.1742 11.1763Z" fill="#03C581"/>
<path d="M12.0018 19.9043C11.5573 19.9043 11.1763 20.2853 11.1763 20.7297V23.1742C11.1763 23.6187 11.5573 23.9996 12.0018 23.9996C12.4462 23.9996 12.8272 23.6187 12.8272 23.1742V20.7297C12.8272 20.2853 12.4462 19.9043 12.0018 19.9043Z" fill="#03C581"/>
<path d="M20.4767 19.3338L18.7306 17.5877C18.4449 17.2702 17.9052 17.2702 17.5877 17.5877C17.2702 17.9052 17.2702 18.4131 17.5877 18.7306L19.3338 20.4767C19.6512 20.7941 20.1592 20.7941 20.4767 20.4767C20.7941 20.1592 20.7941 19.6512 20.4767 19.3338Z" fill="#03C581"/>
<path d="M12.0018 0C11.5573 0 11.1763 0.380959 11.1763 0.825411V3.2699C11.1763 3.71435 11.5573 4.09531 12.0018 4.09531C12.4462 4.09531 12.8272 3.71435 12.8272 3.2699V0.825411C12.8272 0.380959 12.4462 0 12.0018 0Z" fill="#03C581"/>
<path d="M20.5085 3.52354C20.191 3.20607 19.683 3.20607 19.3656 3.52354L17.6195 5.2696C17.3021 5.58707 17.3021 6.09501 17.6195 6.41248C17.9052 6.72995 18.4449 6.72995 18.7624 6.41248L20.5085 4.66641C20.8259 4.34895 20.8259 3.841 20.5085 3.52354Z" fill="#03C581"/>
<path d="M3.2699 11.1763H0.825411C0.380959 11.1763 0 11.5573 0 12.0018C0 12.4462 0.349212 12.8272 0.825411 12.8272H3.2699C3.71435 12.8272 4.09531 12.4462 4.09531 12.0018C4.09531 11.5573 3.71435 11.1763 3.2699 11.1763Z" fill="#03C581"/>
<path d="M6.38067 17.5877C6.09495 17.2702 5.55526 17.2702 5.23779 17.5877L3.49173 19.3338C3.17426 19.6512 3.17426 20.1592 3.49173 20.4767C3.80919 20.7941 4.31714 20.7941 4.63461 20.4767L6.38067 18.7306C6.69814 18.4131 6.69814 17.9052 6.38067 17.5877Z" fill="#03C581"/>
<path d="M6.38067 5.2696L4.63461 3.52354C4.31714 3.20607 3.80919 3.20607 3.49173 3.52354C3.17426 3.841 3.17426 4.34895 3.49173 4.66641L5.23779 6.41248C5.55526 6.72995 6.06321 6.72995 6.38067 6.41248C6.69814 6.09501 6.69814 5.58707 6.38067 5.2696Z" fill="#03C581"/>
</svg>
