<svg width="24" height="24" viewBox="0 0 24 24" fill="none" xmlns="http://www.w3.org/2000/svg">
<path d="M16.2547 7.74656C15.1753 6.66718 13.6514 5.96875 12.0006 5.96875C10.3498 5.96875 8.82595 6.63543 7.74656 7.74656C6.66718 8.82595 5.96875 10.3498 5.96875 12.0006C5.96875 13.6514 6.66718 15.1753 7.74656 16.2547C8.82595 17.3341 10.3498 18.0325 12.0006 18.0325C13.6514 18.0325 15.1753 17.3658 16.2547 16.2547C17.3341 15.1753 18.0325 13.6514 18.0325 12.0006C18.0325 10.3498 17.3658 8.82595 16.2547 7.74656ZM15.1118 15.1118C14.3181 15.9054 13.207 16.3816 12.0006 16.3816C10.7942 16.3816 9.68311 15.9054 8.88944 15.1118C8.09578 14.3181 7.61958 13.207 7.61958 12.0006C7.61958 10.7942 8.09578 9.68311 8.88944 8.88944C9.68311 8.09578 10.7942 7.61958 12.0006 7.61958C13.207 7.61958 14.3181 8.09578 15.1118 8.88944C15.9054 9.68311 16.3816 10.7942 16.3816 12.0006C16.3816 13.207 15.9054 14.3181 15.1118 15.1118Z" fill="white"/>
<path d="M23.1742 11.1768H20.7297C20.2853 11.1768 19.9043 11.5577 19.9043 12.0022C19.9043 12.4466 20.2853 12.8276 20.7297 12.8276H23.1742C23.6187 12.8276 23.9996 12.4466 23.9996 12.0022C23.9996 11.5577 23.6187 11.1768 23.1742 11.1768Z" fill="white"/>
<path d="M12.0022 19.9043C11.5577 19.9043 11.1768 20.2853 11.1768 20.7297V23.1742C11.1768 23.6187 11.5577 23.9996 12.0022 23.9996C12.4466 23.9996 12.8276 23.6187 12.8276 23.1742V20.7297C12.8276 20.2853 12.4466 19.9043 12.0022 19.9043Z" fill="white"/>
<path d="M20.4767 19.3338L18.7306 17.5877C18.4449 17.2702 17.9052 17.2702 17.5877 17.5877C17.2702 17.9052 17.2702 18.4131 17.5877 18.7306L19.3338 20.4767C19.6512 20.7941 20.1592 20.7941 20.4767 20.4767C20.7941 20.1592 20.7941 19.6512 20.4767 19.3338Z" fill="white"/>
<path d="M12.0022 0C11.5577 0 11.1768 0.380959 11.1768 0.825411V3.2699C11.1768 3.71435 11.5577 4.09531 12.0022 4.09531C12.4466 4.09531 12.8276 3.71435 12.8276 3.2699V0.825411C12.8276 0.380959 12.4466 0 12.0022 0Z" fill="white"/>
<path d="M20.5089 3.52326C20.1914 3.20579 19.6835 3.20579 19.366 3.52326L17.6199 5.26932C17.3025 5.58679 17.3025 6.09473 17.6199 6.4122C17.9057 6.72967 18.4453 6.72967 18.7628 6.4122L20.5089 4.66614C20.8263 4.34867 20.8263 3.84072 20.5089 3.52326Z" fill="white"/>
<path d="M3.2699 11.1768H0.825411C0.380959 11.1768 0 11.5577 0 12.0022C0 12.4466 0.349212 12.8276 0.825411 12.8276H3.2699C3.71435 12.8276 4.09531 12.4466 4.09531 12.0022C4.09531 11.5577 3.71435 11.1768 3.2699 11.1768Z" fill="white"/>
<path d="M6.38095 17.5877C6.09523 17.2702 5.55554 17.2702 5.23807 17.5877L3.49201 19.3338C3.17454 19.6512 3.17454 20.1592 3.49201 20.4767C3.80947 20.7941 4.31742 20.7941 4.63489 20.4767L6.38095 18.7306C6.69842 18.4131 6.69842 17.9052 6.38095 17.5877Z" fill="white"/>
<path d="M6.38095 5.26932L4.63489 3.52326C4.31742 3.20579 3.80947 3.20579 3.49201 3.52326C3.17454 3.84072 3.17454 4.34867 3.49201 4.66614L5.23807 6.4122C5.55554 6.72967 6.06349 6.72967 6.38095 6.4122C6.69842 6.09473 6.69842 5.58679 6.38095 5.26932Z" fill="white"/>
</svg>
