<svg width="250" height="198" viewBox="0 0 250 198" fill="none" xmlns="http://www.w3.org/2000/svg">
<g opacity="0.06">
<path d="M21.5334 124.701H0V39.5813H50.1188L72.289 69.4167C72.289 69.4167 65.237 60.5015 48.6801 60.7137C32.1232 60.926 21.7457 60.7137 21.7457 60.7137L21.5334 124.701Z" fill="#3366FF"/>
<path d="M0 158.051V136.518H49.9065C49.9065 136.518 79.742 137.956 83.4684 103.593C84.0816 94.4888 83.3505 84.2763 79.0344 78.946C87.4779 89.8189 104.224 113.121 104.224 113.121C104.224 113.121 97.997 154.631 52.1236 158.051H0Z" fill="#3366FF"/>
<path d="M190.286 39.5813V158.05H167.904V72.1055L132.007 119.677L131.983 119.701L127.101 126.564L123.21 120.903L123.186 120.856L63.1379 39.5813H90.2138L127.809 90.3133L164.885 39.5813H190.286Z" fill="#3366FF"/>
<path d="M172.007 197.815C218.164 177.461 241.702 125.243 225.971 76.9643C217.787 51.9167 200.286 31.4683 176.654 19.369C176.394 19.2511 176.159 19.1096 175.899 18.9916C149.696 5.78387 119.011 4.86404 92.0533 16.468C96.4637 14.0151 108.846 7.74145 125.002 3.09514C125.002 3.09514 125.002 3.09514 125.026 3.09514C125.026 3.09514 125.049 3.09514 125.073 3.09514C128.092 2.31683 222.527 -21.3864 248.094 75.7615C254.132 112.389 250.028 183.759 172.007 197.815Z" fill="#3366FF"/>
</g>
</svg>
