<svg width="18px" height="18px" viewBox="0 0 18 18" fill="none" xmlns="http://www.w3.org/2000/svg">
<path fill-rule="evenodd" clip-rule="evenodd" d="M12.9718 3.65301C12.5025 3.65301 12.1206 3.27108 12.1206 2.80183C12.1206 2.33258 12.5025 1.95113 12.9718 1.95113C13.441 1.95113 13.823 2.33258 13.823 2.80183C13.823 3.27108 13.441 3.65301 12.9718 3.65301ZM15.5951 1.82675C15.198 0.761918 14.1737 0 12.9718 0C11.7699 0 10.7455 0.761918 10.3485 1.82675H0.0216064V3.77788H10.3485C10.746 4.84223 11.7704 5.60415 12.9718 5.60415C14.1732 5.60415 15.1975 4.84223 15.5951 3.77788H17.474V1.82675H15.5951Z" fill="#3366FF"/>
<path fill-rule="evenodd" clip-rule="evenodd" d="M4.52397 16.049C4.05472 16.049 3.67279 15.6671 3.67279 15.1978C3.67279 14.7286 4.05472 14.3471 4.52397 14.3471C4.99322 14.3471 5.37515 14.7286 5.37515 15.1978C5.37515 15.6671 4.99322 16.049 4.52397 16.049ZM4.52397 12.396C3.32207 12.396 2.29773 13.1579 1.90067 14.2227H0.0217285V16.1739H1.90067C2.29821 17.2382 3.32256 18.0001 4.52397 18.0001C5.72538 18.0001 6.74973 17.2382 7.14727 16.1739H17.4741V14.2227H7.14727C6.75022 13.1579 5.72587 12.396 4.52397 12.396Z" fill="#3366FF"/>
<path fill-rule="evenodd" clip-rule="evenodd" d="M8.72596 8.14791C9.19521 8.14791 9.57714 8.52936 9.57714 8.99861C9.57714 9.46785 9.19521 9.84979 8.72596 9.84979C8.25671 9.84979 7.87478 9.46785 7.87478 8.99861C7.87478 8.52936 8.25671 8.14791 8.72596 8.14791ZM8.72596 11.8009C9.92689 11.8009 10.9512 11.0395 11.3488 9.97564H17.4524V8.0245H11.3498C10.9527 6.9587 9.92786 6.19678 8.72596 6.19678C7.52406 6.19678 6.49923 6.9587 6.10217 8.0245H0V9.97564H6.10315C6.50069 11.0395 7.52504 11.8009 8.72596 11.8009Z" fill="#3366FF"/>
</svg>
