<svg width="18px" height="18px" viewBox="0 0 17 18" fill="none" xmlns="http://www.w3.org/2000/svg">
<path d="M2.3486 2.10938C2.3486 1.72169 2.66405 1.40625 3.05173 1.40625H9.20023V3.90619C9.20023 5.06937 10.1464 6.01556 11.3096 6.01556H13.8057V10.1953H15.2119V5.02226L10.2151 0H3.05173C1.88869 0 0.942352 0.946198 0.942352 2.10938V10.1953H2.3486V2.10938ZM10.6065 3.90619V2.38705L12.8175 4.60931H11.3096C10.9219 4.60931 10.6065 4.29401 10.6065 3.90619ZM16.2353 16.0488C16.2353 17.1247 15.3601 18 14.2841 18H11.1377V16.5938H14.2841C14.5846 16.5938 14.8291 16.3493 14.8291 16.0488C14.8291 15.7484 14.5846 15.5039 14.2841 15.5039H13.0888C12.013 15.5039 11.1377 14.6286 11.1377 13.5527C11.1377 12.4769 12.013 11.6016 13.0888 11.6016H15.497V13.0078H13.0888C12.7884 13.0078 12.5439 13.2523 12.5439 13.5527C12.5439 13.8532 12.7884 14.0977 13.0888 14.0977H14.2841C15.3601 14.0977 16.2353 14.973 16.2353 16.0488ZM10.6103 16.0488C10.6103 17.1247 9.73512 18 8.65915 18H5.51266V16.5938H8.65915C8.95963 16.5938 9.20407 16.3493 9.20407 16.0488C9.20407 15.7484 8.95963 15.5039 8.65915 15.5039H7.46384C6.388 15.5039 5.51266 14.6286 5.51266 13.5527C5.51266 12.4769 6.388 11.6016 7.46384 11.6016H9.87204V13.0078H7.46384C7.16336 13.0078 6.91891 13.2523 6.91891 13.5527C6.91891 13.8532 7.16336 14.0977 7.46384 14.0977H8.65915C9.73512 14.0977 10.6103 14.973 10.6103 16.0488ZM1.40625 14.8008C1.40625 15.7894 2.20976 16.5938 3.1973 16.5938C3.45094 16.5938 3.69594 16.5418 3.92542 16.4394L4.49835 17.7237C4.08746 17.907 3.64966 18 3.1973 18C1.43427 18 0 16.5648 0 14.8008C0 13.0367 1.43427 11.6016 3.1973 11.6016C3.64966 11.6016 4.08746 11.6945 4.49835 11.8779L3.92542 13.162C3.69594 13.0597 3.45094 13.0077 3.1973 13.0077C2.20976 13.0078 1.40625 13.8121 1.40625 14.8008Z" fill="#3366FF"/>
</svg>
