<svg width="18px" height="18px" viewBox="0 0 18 18" fill="none" xmlns="http://www.w3.org/2000/svg">
<path d="M17.487 10.9725L15.8325 9.67876C15.8535 9.47925 15.8715 9.24602 15.8715 8.99926C15.8715 8.7525 15.8542 8.51927 15.8325 8.31976L17.4885 7.02527C17.796 6.78227 17.88 6.35101 17.6842 5.99179L15.9637 3.015C15.78 2.67901 15.3772 2.5065 14.9685 2.65725L13.0162 3.44099C12.642 3.17099 12.2497 2.943 11.844 2.76075L11.547 0.690012C11.4982 0.297 11.1562 0 10.752 0H7.30199C6.89773 0 6.5565 0.297 6.50848 0.684L6.21074 2.76226C5.81773 2.93927 5.4315 3.16427 5.04074 3.4425L3.08324 2.65651C2.71646 2.51476 2.27771 2.67374 2.09546 3.00825L0.372729 5.98876C0.169491 6.33227 0.253479 6.77851 0.567741 7.02752L2.22223 8.32127C2.19597 8.57401 2.18324 8.79377 2.18324 9.00004C2.18324 9.2063 2.196 9.42602 2.22223 9.67954L0.566229 10.974C0.258717 11.2178 0.175467 11.649 0.371217 12.0075L2.09173 14.9843C2.27549 15.3195 2.67448 15.4935 3.08697 15.342L5.03923 14.5583C5.41273 14.8275 5.80497 15.0555 6.21074 15.2385L6.50774 17.3085C6.55647 17.703 6.89773 18 7.30273 18H10.7527C11.157 18 11.499 17.703 11.547 17.316L11.8447 15.2385C12.2377 15.0608 12.6232 14.8365 13.0147 14.5575L14.9722 15.3435C15.0667 15.3802 15.165 15.399 15.2662 15.399C15.5572 15.399 15.825 15.24 15.96 14.9925L17.688 12C17.88 11.649 17.796 11.2178 17.487 10.9725ZM9.02697 12C7.37248 12 6.02698 10.6545 6.02698 9C6.02698 7.34551 7.37248 6.00001 9.02697 6.00001C10.6815 6.00001 12.027 7.34551 12.027 9C12.027 10.6545 10.6815 12 9.02697 12Z" fill="#3366FF"/>
</svg>
