<svg width="18px" height="18px" viewBox="0 0 18 18" fill="none" xmlns="http://www.w3.org/2000/svg">
<path d="M2.95391 18H7.4537C8.07236 18 8.57863 17.4933 8.57863 16.874V12.3701C8.57863 11.7509 8.07236 11.2441 7.4537 11.2441H2.95391C2.33517 11.2441 1.82898 11.7509 1.82898 12.3701V16.874C1.82898 17.4933 2.33517 18 2.95391 18Z" fill="#3366FF"/>
<path d="M18.0001 11.8071C18.0001 11.1878 17.4938 10.6812 16.8752 10.6812H11.1098C10.4911 10.6812 9.98486 11.1878 9.98486 11.8071V14.3406C9.98486 14.9598 10.4911 15.4665 11.1098 15.4665H16.8752C17.4938 15.4665 18.0001 14.9598 18.0001 14.3406V11.8071Z" fill="#3366FF"/>
<path d="M7.61111 6.17788L4.41341 0.40615C4.26338 0.135407 4.06562 0 3.8678 0C3.66998 0 3.47222 0.135407 3.32219 0.40615L0.124617 6.17788C-0.175449 6.71937 0.0852696 7.16254 0.703949 7.16254H7.03179C7.65046 7.16254 7.91118 6.71937 7.61111 6.17788ZM1.82895 5.89582C1.75128 5.89582 1.68832 5.83277 1.68832 5.75505C1.68832 5.67733 1.75128 5.61428 1.82895 5.61428C1.90653 5.61428 1.9695 5.67733 1.9695 5.75505C1.9695 5.83277 1.90653 5.89582 1.82895 5.89582ZM3.92075 2.30424L2.37393 5.11914C2.34839 5.16578 2.30025 5.19207 2.25061 5.19207C2.22768 5.19207 2.20447 5.1865 2.18297 5.17463C2.11494 5.13721 2.09008 5.05159 2.12757 4.98354L3.67437 2.16856C3.71172 2.10045 3.79742 2.07546 3.86533 2.11316C3.93337 2.15058 3.95824 2.23613 3.92075 2.30424Z" fill="#3366FF"/>
<path d="M8.64854 1.82812C7.75789 1.82812 6.93536 2.11905 6.26999 2.61056L8.10259 5.91525C8.34469 6.35182 8.36207 6.80857 8.15023 7.1683C7.93834 7.52804 7.53054 7.73438 7.03128 7.73438H5.11829C5.79505 8.99018 7.12198 9.84375 8.64854 9.84375C10.862 9.84375 12.6563 8.0494 12.6563 5.83594C12.6563 3.62254 10.862 1.82812 8.64854 1.82812Z" fill="#3366FF"/>
</svg>
