<svg width="18px" height="18px" viewBox="0 0 18 14" fill="none" xmlns="http://www.w3.org/2000/svg">
<path d="M13.7812 12.0334H13.2538H4.69153H4.16418H3.63684V13.432H14.3085V12.0334H13.7812Z" fill="#3366FF"/>
<path d="M5.80286 3.88545C5.31512 3.60317 4.6904 3.81609 4.47658 4.33748L4.34754 4.65213C4.23469 4.92732 4.35418 5.24291 4.621 5.37435L5.09526 5.60778C5.42824 5.77164 5.83097 5.66823 6.04381 5.3642L6.1039 5.27837L6.40765 4.84454C6.57082 4.61141 6.49939 4.28857 6.25311 4.14603L5.80286 3.88545Z" fill="#3366FF"/>
<path d="M13.519 4.32624C13.3076 3.81078 12.6899 3.60028 12.2077 3.87934L11.7124 4.16599C11.4661 4.30854 11.3947 4.6315 11.558 4.86458L11.8614 5.29841L11.8814 5.32697C12.1092 5.65242 12.5403 5.76314 12.8968 5.58774L13.3707 5.35431C13.6377 5.22289 13.7573 4.90714 13.6443 4.63182L13.519 4.32624Z" fill="#3366FF"/>
<path d="M16.5129 3.22663C15.7525 3.22663 15.1239 3.79968 15.0363 4.5369C15.0293 4.59491 15.0258 4.65397 15.0258 4.71374C15.0258 4.84804 15.0437 4.97847 15.0775 5.10222C15.1242 5.27554 15.2019 5.43655 15.3039 5.57858L14.2464 6.09925L13.7721 6.33269L13.713 6.36187H13.7127L13.2979 6.56577L11.932 7.23831L10.9452 5.8289L10.6798 5.44956V5.44921L10.6414 5.39472L10.338 4.96124L9.31781 3.50366C9.49641 3.46218 9.66305 3.38835 9.8107 3.28851C9.95941 3.18866 10.0891 3.06175 10.1932 2.9155C10.3662 2.67257 10.4681 2.3755 10.4681 2.05522C10.4681 1.23503 9.80121 0.568115 8.98102 0.568115C8.16117 0.568115 7.49391 1.23503 7.49391 2.05522C7.49391 2.37233 7.59375 2.66659 7.76355 2.90812C7.86691 3.05507 7.99594 3.18269 8.14394 3.28358C8.2909 3.38413 8.45684 3.45901 8.63508 3.50155L7.62715 4.9412L7.32375 5.37468L7.25871 5.46784L7.02 5.80886L6.01945 7.23831L4.69371 6.58581L4.25707 6.37065L4.2198 6.35237L3.74555 6.11894L2.59453 5.55257C2.7123 5.42108 2.80723 5.26851 2.87262 5.10151C2.93801 4.93452 2.97387 4.75312 2.97422 4.56362V4.56081C2.97422 3.74061 2.3073 3.07335 1.48711 3.07335C0.667266 3.07335 0 3.74061 0 4.56081C0 5.3128 0.561445 5.93683 1.28742 6.03456C1.35281 6.04335 1.41926 6.04792 1.48711 6.04792C1.60734 6.04792 1.72406 6.03351 1.83621 6.00644C2.01164 5.96425 2.17512 5.89077 2.32031 5.79233L3.97688 10.4512L4.16426 10.9786H13.7869L13.9743 10.4512L15.5981 5.88515C15.7377 5.99448 15.897 6.07921 16.0699 6.13335C16.2098 6.1773 16.3586 6.20085 16.5129 6.20085C16.5445 6.20085 16.5758 6.19979 16.6068 6.19769C17.383 6.14917 18 5.50194 18 4.71374C18 3.89354 17.3327 3.22663 16.5129 3.22663Z" fill="#3366FF"/>
</svg>
